<?xml version="1.0" encoding="UTF-8"?>
<svg xmlns="http://www.w3.org/2000/svg" xmlns:xlink="http://www.w3.org/1999/xlink" viewBox="0 0 64 64" width="64px" height="64px">
<g id="surface119932219">
<path style=" stroke:none;fill-rule:nonzero;fill:rgb(15.686275%,43.529412%,100%);fill-opacity:1;" d="M 53.28125 13.785156 C 48.183594 9.683594 40.125 8.988281 39.78125 8.964844 C 39.246094 8.921875 38.734375 9.21875 38.515625 9.714844 C 38.496094 9.746094 38.320312 10.148438 38.125 10.78125 C 41.496094 11.351562 45.636719 12.496094 49.378906 14.820312 C 49.980469 15.191406 50.164062 15.980469 49.796875 16.578125 C 49.550781 16.976562 49.136719 17.191406 48.703125 17.191406 C 48.476562 17.191406 48.238281 17.125 48.03125 16.996094 C 41.589844 13 33.550781 12.800781 32 12.800781 C 30.449219 12.800781 22.40625 13 15.96875 16.996094 C 15.371094 17.371094 14.578125 17.183594 14.210938 16.585938 C 13.835938 15.980469 14.019531 15.195312 14.621094 14.820312 C 18.363281 12.5 22.503906 11.351562 25.875 10.785156 C 25.679688 10.148438 25.503906 9.75 25.488281 9.714844 C 25.265625 9.21875 24.761719 8.910156 24.21875 8.964844 C 23.875 8.988281 15.816406 9.683594 10.648438 13.839844 C 7.953125 16.335938 2.558594 30.914062 2.558594 43.519531 C 2.558594 43.746094 2.621094 43.960938 2.730469 44.15625 C 6.449219 50.695312 16.605469 52.40625 18.921875 52.480469 C 18.929688 52.480469 18.945312 52.480469 18.960938 52.480469 C 19.371094 52.480469 19.753906 52.285156 19.996094 51.953125 L 22.335938 48.734375 C 16.019531 47.105469 12.796875 44.335938 12.609375 44.171875 C 12.078125 43.703125 12.03125 42.894531 12.5 42.363281 C 12.964844 41.835938 13.773438 41.785156 14.304688 42.25 C 14.378906 42.320312 20.320312 47.359375 32 47.359375 C 43.699219 47.359375 49.640625 42.300781 49.699219 42.25 C 50.230469 41.789062 51.035156 41.835938 51.503906 42.371094 C 51.96875 42.898438 51.921875 43.703125 51.390625 44.171875 C 51.203125 44.335938 47.980469 47.105469 41.664062 48.734375 L 44.003906 51.953125 C 44.246094 52.285156 44.628906 52.480469 45.039062 52.480469 C 45.054688 52.480469 45.070312 52.480469 45.078125 52.480469 C 47.394531 52.40625 57.550781 50.695312 61.269531 44.15625 C 61.378906 43.960938 61.441406 43.746094 61.441406 43.519531 C 61.441406 30.914062 56.046875 16.335938 53.28125 13.785156 Z M 23.679688 38.398438 C 21.203125 38.398438 19.199219 36.109375 19.199219 33.28125 C 19.199219 30.449219 21.203125 28.160156 23.679688 28.160156 C 26.15625 28.160156 28.160156 30.449219 28.160156 33.28125 C 28.160156 36.109375 26.15625 38.398438 23.679688 38.398438 Z M 40.320312 38.398438 C 37.84375 38.398438 35.839844 36.109375 35.839844 33.28125 C 35.839844 30.449219 37.84375 28.160156 40.320312 28.160156 C 42.796875 28.160156 44.800781 30.449219 44.800781 33.28125 C 44.800781 36.109375 42.796875 38.398438 40.320312 38.398438 Z M 40.320312 38.398438 "/>
</g>
</svg>
