<?xml version="1.0" encoding="UTF-8"?>
<svg xmlns="http://www.w3.org/2000/svg" xmlns:xlink="http://www.w3.org/1999/xlink" viewBox="0 0 64 64" width="64px" height="64px">
<g id="surface119688320">
<path style=" stroke:none;fill-rule:nonzero;fill:rgb(15.686275%,43.529412%,100%);fill-opacity:1;" d="M 29.066406 5.601562 C 16.800781 6.933594 6.933594 16.800781 5.601562 28.800781 C 4 42.132812 12.265625 53.601562 24 57.332031 L 24 51.199219 C 24 51.199219 22.933594 51.464844 21.601562 51.464844 C 17.867188 51.464844 16.265625 48.265625 16 46.398438 C 15.734375 45.332031 15.199219 44.535156 14.398438 43.734375 C 13.601562 43.464844 13.332031 43.464844 13.332031 43.199219 C 13.332031 42.667969 14.132812 42.667969 14.398438 42.667969 C 16 42.667969 17.332031 44.535156 17.867188 45.332031 C 19.199219 47.464844 20.800781 48 21.601562 48 C 22.667969 48 23.464844 47.734375 24 47.464844 C 24.265625 45.601562 25.066406 43.734375 26.667969 42.667969 C 20.535156 41.332031 16 37.867188 16 32 C 16 29.066406 17.332031 26.132812 19.199219 24 C 18.933594 23.464844 18.667969 22.132812 18.667969 20.265625 C 18.667969 19.199219 18.667969 17.601562 19.464844 16 C 19.464844 16 23.199219 16 26.933594 19.464844 C 28.265625 18.933594 30.132812 18.667969 32 18.667969 C 33.867188 18.667969 35.734375 18.933594 37.332031 19.464844 C 40.800781 16 44.800781 16 44.800781 16 C 45.332031 17.601562 45.332031 19.199219 45.332031 20.265625 C 45.332031 22.398438 45.066406 23.464844 44.800781 24 C 46.667969 26.132812 48 28.800781 48 32 C 48 37.867188 43.464844 41.332031 37.332031 42.667969 C 38.933594 44 40 46.398438 40 48.800781 L 40 57.601562 C 50.933594 54.132812 58.667969 44 58.667969 32.265625 C 58.667969 16.265625 45.066406 3.734375 29.066406 5.601562 Z M 29.066406 5.601562 "/>
</g>
</svg>
