<?xml version="1.0" encoding="iso-8859-1"?>
<!-- Generator: Adobe Illustrator 16.0.0, SVG Export Plug-In . SVG Version: 6.00 Build 0)  -->
<!DOCTYPE svg PUBLIC "-//W3C//DTD SVG 1.1//EN" "http://www.w3.org/Graphics/SVG/1.1/DTD/svg11.dtd">
<svg version="1.1" id="Capa_1" xmlns="http://www.w3.org/2000/svg" xmlns:xlink="http://www.w3.org/1999/xlink" x="0px" y="0px"
	 width="362.714px" height="362.714px" viewBox="0 0 362.714 362.714" style="enable-background:new 0 0 362.714 362.714;"
	 xml:space="preserve">
<g>
	<path d="M359.05,84.793c-0.948-3.102-3.446-5.479-6.593-6.26c-3.135-0.798-6.461,0.135-8.755,2.429L331.14,93.519
		c-0.36,0.363-0.696,0.757-0.984,1.168c-1.502,2.113-3.051,3.966-4.732,5.645l-8.694,8.695
		c-8.419,8.418-19.624,13.054-31.525,13.054c-11.92,0-23.106-4.636-31.525-13.054c-17.378-17.384-17.378-45.669,0-63.05
		l27.238-27.241c2.306-2.3,3.23-5.65,2.413-8.806c-0.804-3.158-3.2-5.656-6.334-6.566C269.381,1.132,261.49,0,253.54,0
		c-22.134,0-42.916,8.602-58.541,24.232L173.25,45.97c-25.755,25.748-31.441,65.614-14.748,97.361L12.598,289.227
		c-16.784,16.79-16.784,44.1,0,60.877c8.124,8.13,18.939,12.61,30.432,12.61c11.487,0,22.302-4.48,30.426-12.61l145.898-145.887
		c11.878,6.263,25.112,9.536,38.695,9.536c0.012,0,0.012,0,0.012,0c22.157,0,42.994-8.629,58.667-24.29l21.737-21.746
		C360.155,146.03,368.045,114.253,359.05,84.793z M54.763,324.259c-4.498,4.491-11.806,4.491-16.303,0
		c-4.503-4.504-4.503-11.806,0-16.309c4.498-4.504,11.806-4.504,16.303,0C59.267,312.453,59.267,319.749,54.763,324.259z"/>
</g>
<g>
</g>
<g>
</g>
<g>
</g>
<g>
</g>
<g>
</g>
<g>
</g>
<g>
</g>
<g>
</g>
<g>
</g>
<g>
</g>
<g>
</g>
<g>
</g>
<g>
</g>
<g>
</g>
<g>
</g>
</svg>
